<svg xmlns="http://www.w3.org/2000/svg" viewBox="0 0 128 128" role="img" aria-label="Rosch Capital Bank logo">
  <defs>
    <linearGradient id="rcb-core" x1="0%" y1="0%" x2="100%" y2="100%">
      <stop offset="0%" stop-color="#7c3aed"/>
      <stop offset="55%" stop-color="#5b21b6"/>
      <stop offset="100%" stop-color="#1f1238"/>
    </linearGradient>
    <radialGradient id="rcb-glow" cx="30%" cy="20%" r="80%">
      <stop offset="0%" stop-color="#f9f6ff" stop-opacity="0.9"/>
      <stop offset="70%" stop-color="#d9ccff" stop-opacity="0.2"/>
      <stop offset="100%" stop-color="#c4b5fd" stop-opacity="0"/>
    </radialGradient>
    <linearGradient id="rcb-building" x1="0%" y1="0%" x2="0%" y2="100%">
      <stop offset="0%" stop-color="#ffffff"/>
      <stop offset="100%" stop-color="#d9d7ff"/>
    </linearGradient>
    <linearGradient id="rcb-windows" x1="0%" y1="0%" x2="0%" y2="100%">
      <stop offset="0%" stop-color="#fef8ff"/>
      <stop offset="100%" stop-color="#c8bbf8"/>
    </linearGradient>
  </defs>
  <rect width="128" height="128" rx="28" fill="url(#rcb-core)"/>
  <rect width="128" height="128" rx="28" fill="url(#rcb-glow)" opacity="0.8"/>
  <path d="M20 82c0-10 8-18 18-18h52c10 0 18 8 18 18v10c0 10-8 18-18 18H38c-10 0-18-8-18-18z" fill="#2b0f52" opacity="0.55"/>
  <rect x="34" y="34" width="20" height="62" rx="6" fill="url(#rcb-building)"/>
  <rect x="74" y="34" width="20" height="62" rx="6" fill="url(#rcb-building)"/>
  <rect x="54" y="26" width="20" height="70" rx="8" fill="url(#rcb-building)" opacity="0.95"/>
  <rect x="46" y="92" width="36" height="8" rx="4" fill="#cbb5ff"/>
  <rect x="58" y="68" width="12" height="23" rx="3" fill="url(#rcb-windows)"/>
  <path d="M42 48h12" stroke="#d9d3ff" stroke-width="4" stroke-linecap="round"/>
  <path d="M42 60h12" stroke="#d9d3ff" stroke-width="4" stroke-linecap="round"/>
  <path d="M42 72h12" stroke="#d9d3ff" stroke-width="4" stroke-linecap="round"/>
  <path d="M42 84h12" stroke="#d9d3ff" stroke-width="4" stroke-linecap="round"/>
  <path d="M74 48h12" stroke="#d9d3ff" stroke-width="4" stroke-linecap="round"/>
  <path d="M74 60h12" stroke="#d9d3ff" stroke-width="4" stroke-linecap="round"/>
  <path d="M74 72h12" stroke="#d9d3ff" stroke-width="4" stroke-linecap="round"/>
  <path d="M74 84h12" stroke="#d9d3ff" stroke-width="4" stroke-linecap="round"/>
  <path d="M52 40h24" stroke="#f5f3ff" stroke-width="5" stroke-linecap="round"/>
  <path d="M52 52h24" stroke="#f5f3ff" stroke-width="5" stroke-linecap="round"/>
  <circle cx="64" cy="104" r="6" fill="#ffffff"/>
</svg>
